<svg width="113" height="27" xmlns="http://www.w3.org/2000/svg">
 <metadata id="metadata8">image/svg+xml</metadata>
 <defs>
  <clipPath clipPathUnits="userSpaceOnUse" id="clipPath16">
   <path d="m-7.5,33.361044l96.319,0l0,-29.448l-96.319,0l0,29.448z" id="path18"/>
  </clipPath>
 </defs>
 <g>
  <title>background</title>
  <rect fill="none" id="canvas_background" height="29" width="115" y="-1" x="-1"/>
 </g>
 <g>
  <title>Layer 1</title>
  <g id="g10" transform="matrix(1.3333333,0,0,-1.3333333,0,39.263733) ">
   <g id="g12">
    <g id="g14" clip-path="url(#clipPath16)">
     <g id="g20">
      <path fill="#257e3f" fill-rule="nonzero" d="m79.765099,14.437744l-1.426,3.39l-1.243,-3.39l2.669,0zm-6.254,-3.668c0.995,0.057 1.27,0.202 2.063,2.135l3.174,7.751l0.244,0l3.909,-8.819c0.375,-0.837 0.722,-1.067 1.472,-1.067l0,-0.513c-0.996,0.015 -1.631,0.044 -2.207,0.044c-0.577,0 -1.197,-0.029 -2.247,-0.044l0,0.513c0.848,0 1.078,0.144 1.078,0.533c0,0.159 -0.101,0.462 -0.403,1.183l-0.56,1.329l-3.161,0l-0.478,-1.158c-0.36,-1.009 -0.398,-1.195 -0.398,-1.339c0,-0.375 0.082,-0.534 1.029,-0.548l0,-0.513c-1.293,0.044 -1.437,0.044 -1.784,0.044c-0.361,0 -0.505,0 -1.731,-0.044l0,0.513z" id="path22"/>
     </g>
     <g id="g24">
      <path fill="#257e3f" fill-rule="nonzero" d="m47.009102,10.769644c0.937,0.014 1.197,0.36 1.197,1.168l0,7.068c0,0.808 -0.26,1.154 -1.197,1.168l0,0.525c0.49,-0.014 1.197,-0.043 1.932,-0.043c2.207,0 3.981,0.029 5.323,0.043l0.058,-2.515l-0.461,0c-0.232,1.385 -0.852,1.875 -2.583,1.875l-1.255,0l0,-4.138l1.111,0c1.313,0 1.5,0.445 1.601,1.354l0.49,0c-0.014,-0.562 -0.028,-1.096 -0.028,-1.557c0,-0.679 0.014,-1.227 0.028,-1.804l-0.49,0c0,1.14 -0.361,1.398 -1.615,1.398l-1.097,0l0,-3.403c0,-0.663 0.274,-1.024 1.631,-1.024c1.471,0 2.495,0.274 2.841,2.092l0.49,0c-0.087,-0.693 -0.216,-1.984 -0.216,-2.72c-1.399,0.015 -3.231,0.044 -5.496,0.044c-1.111,0 -1.976,-0.029 -2.264,-0.044l0,0.513z" id="path26"/>
     </g>
     <g id="g28">
      <path fill="#257e3f" fill-rule="nonzero" d="m59.4422,15.689744c0.274,-0.058 0.664,-0.101 0.953,-0.101c1.297,0 2.076,0.561 2.076,1.96c0,1.053 -0.534,2.625 -2.409,2.625c-0.259,0 -0.418,-0.014 -0.62,-0.058l0,-4.426zm-3.015,-4.92c0.938,0.014 1.198,0.36 1.198,1.168l0,7.068c0,0.808 -0.26,1.154 -1.198,1.168l0,0.525c0.679,-0.014 1.256,-0.043 1.789,-0.043c0.937,0 1.89,0.043 2.827,0.043c2.51,0 3.303,-1.347 3.303,-2.76c0,-0.982 -0.606,-2.078 -2.005,-2.51l1.803,-3.318c0.649,-1.198 0.996,-1.471 1.818,-1.586l0,-0.347c-0.217,-0.014 -0.433,-0.029 -0.664,-0.029c-1.918,0 -2.711,0.664 -3.519,2.381l-0.563,1.151c-0.605,1.284 -0.807,1.385 -1.774,1.399l0,-3.142c0,-0.808 0.26,-1.154 1.197,-1.168l0,-0.513c-1.153,0.03 -1.644,0.044 -2.106,0.044c-0.461,0 -0.951,-0.014 -2.106,-0.044l0,0.513z" id="path30"/>
     </g>
     <g id="g32">
      <path fill="#257e3f" fill-rule="nonzero" d="m68.0131,10.769644c0.938,0.014 1.197,0.36 1.197,1.168l0,7.948l-1.269,0c-1.154,0 -1.919,-0.317 -2.005,-2.135l-0.534,0l0.087,2.948c1.543,-0.014 3.086,-0.029 4.629,-0.043c1.544,-0.014 3.087,0.029 4.631,0.043l0.087,-2.948l-0.534,0c-0.087,1.818 -0.851,2.135 -2.005,2.135l-1.27,0l0,-7.948c0,-0.808 0.26,-1.154 1.198,-1.168l0,-0.513c-1.154,0.03 -1.645,0.044 -2.107,0.044c-0.461,0 -0.951,-0.014 -2.105,-0.044l0,0.513z" id="path34"/>
     </g>
     <g id="g36">
      <path fill="#257e3f" fill-rule="nonzero" d="m47.8932,26.431444l-0.653,0l0,-0.95l0.653,0c0.317,0 0.501,0.231 0.501,0.475c0,0.244 -0.184,0.475 -0.501,0.475m0.567,-3.661l-0.831,1.748l-0.389,0l0,-1.748l-1.154,0l0,4.697l1.86,0c1.042,0 1.602,-0.739 1.602,-1.511c0,-0.64 -0.395,-1.042 -0.765,-1.227l1.016,-1.959l-1.339,0z" id="path38"/>
     </g>
     <g id="g40">
      <path fill="#257e3f" fill-rule="nonzero" d="m53.010899,22.730943c-0.719,0 -1.306,0.132 -1.781,0.62l0.739,0.739c0.244,-0.244 0.673,-0.33 1.049,-0.33c0.455,0 0.673,0.152 0.673,0.422c0,0.112 -0.027,0.204 -0.093,0.277c-0.059,0.059 -0.158,0.106 -0.31,0.126l-0.567,0.079c-0.416,0.059 -0.732,0.197 -0.943,0.415c-0.218,0.225 -0.324,0.541 -0.324,0.943c0,0.858 0.647,1.485 1.715,1.485c0.673,0 1.181,-0.159 1.583,-0.561l-0.725,-0.726c-0.297,0.297 -0.686,0.277 -0.89,0.277c-0.403,0 -0.568,-0.231 -0.568,-0.435c0,-0.059 0.02,-0.145 0.093,-0.218c0.059,-0.059 0.158,-0.118 0.323,-0.138l0.567,-0.08c0.422,-0.059 0.725,-0.19 0.923,-0.389c0.251,-0.244 0.35,-0.593 0.35,-1.029c0,-0.956 -0.824,-1.477 -1.814,-1.477" id="path42"/>
     </g>
     <path fill="#257e3f" fill-rule="nonzero" d="m56.837,27.467044l1.154,0l0,-4.696l-1.154,0l0,4.696z" id="path44"/>
     <g id="g46">
      <path fill="#257e3f" fill-rule="nonzero" d="m62.2575,26.438144l0,-3.667l-1.154,0l0,3.667l-1.155,0l0,1.029l3.463,0l0,-1.029l-1.154,0z" id="path48"/>
     </g>
     <g id="g50">
      <path fill="#257e3f" fill-rule="nonzero" d="m67.467796,24.683443l0,-1.913l-1.154,0l0,1.913l-1.419,2.784l1.261,0l0.738,-1.689l0.732,1.689l1.26,0l-1.418,-2.784z" id="path52"/>
     </g>
     <g id="g54">
      <path fill="#257e3f" fill-rule="nonzero" d="m74.834503,26.273144c-0.086,0.112 -0.251,0.204 -0.462,0.204c-0.211,0 -0.376,-0.092 -0.461,-0.204c-0.106,-0.139 -0.172,-0.297 -0.172,-1.154c0,-0.858 0.066,-1.01 0.172,-1.148c0.085,-0.112 0.25,-0.211 0.461,-0.211c0.211,0 0.376,0.099 0.462,0.211c0.106,0.138 0.172,0.29 0.172,1.148c0,0.857 -0.066,1.015 -0.172,1.154m0.851,-3.014c-0.343,-0.343 -0.739,-0.528 -1.313,-0.528c-0.573,0 -0.969,0.185 -1.312,0.528c-0.495,0.494 -0.475,1.154 -0.475,1.86c0,0.706 -0.02,1.365 0.475,1.86c0.343,0.343 0.739,0.527 1.312,0.527c0.574,0 0.97,-0.184 1.313,-0.527c0.495,-0.495 0.475,-1.154 0.475,-1.86c0,-0.706 0.02,-1.366 -0.475,-1.86" id="path56"/>
     </g>
     <g id="g58">
      <path fill="#257e3f" fill-rule="nonzero" d="m79.365501,26.438144l0,-0.825l1.741,0l0,-1.029l-1.741,0l0,-1.813l-1.154,0l0,4.696l3.192,0l0,-1.029l-2.038,0z" id="path60"/>
     </g>
     <g id="g62">
      <path fill="#257e3f" fill-rule="nonzero" d="m22.999201,14.437744l-1.426,3.39l-1.243,-3.39l2.669,0zm-6.254,-3.668c0.996,0.057 1.27,0.202 2.063,2.135l3.174,7.751l0.244,0l3.909,-8.819c0.375,-0.837 0.722,-1.067 1.471,-1.067l0,-0.513c-0.995,0.015 -1.63,0.044 -2.206,0.044c-0.577,0 -1.197,-0.029 -2.247,-0.044l0,0.513c0.848,0 1.078,0.144 1.078,0.533c0,0.159 -0.101,0.462 -0.403,1.183l-0.56,1.329l-3.161,0l-0.478,-1.158c-0.361,-1.009 -0.398,-1.195 -0.398,-1.339c0,-0.375 0.082,-0.534 1.029,-0.548l0,-0.513c-1.294,0.044 -1.438,0.044 -1.784,0.044c-0.36,0 -0.505,0 -1.731,-0.044l0,0.513z" id="path64"/>
     </g>
     <g id="g66">
      <path fill="#257e3f" fill-rule="nonzero" d="m28.415199,10.769644c0.937,0.014 1.197,0.36 1.197,1.168l0,7.068c0,0.808 -0.26,1.154 -1.197,1.168l0,0.525c1.154,-0.029 1.644,-0.043 2.105,-0.043c0.462,0 0.953,0.014 2.107,0.043l0,-0.525c-0.938,-0.014 -1.197,-0.36 -1.197,-1.168l0,-7.068c0,-0.75 0.418,-0.995 1.615,-0.995c1.904,0 2.856,0.245 3.144,2.034l0.491,0l-0.231,-2.72c-0.721,0.015 -1.774,0.015 -3,0.03c-1.212,0.014 -2.582,0.014 -3.967,0.014c-0.433,0 -0.808,-0.014 -1.067,-0.044l0,0.513z" id="path68"/>
     </g>
     <g id="g70">
      <path fill="#257e3f" fill-rule="nonzero" d="m40.436699,11.778944c0,-0.692 0.274,-0.894 1.226,-0.894c1.385,0 2.063,0.649 2.063,1.875c0,1.622 -1.154,2.578 -3.101,2.578l-0.188,0l0,-3.559zm0,4.089l0.693,0c1.434,0 2.322,0.576 2.322,1.883c0,1.5 -0.793,2.365 -2.366,2.365l-0.649,0l0,-4.248zm-3.015,-5.098c0.938,0.014 1.197,0.36 1.197,1.168l0,7.068c0,0.808 -0.259,1.154 -1.197,1.168l0,0.525c0.693,-0.029 1.256,-0.043 1.832,-0.043c0.894,0 1.789,0.043 2.684,0.043c1.499,0 3.331,-0.525 3.331,-2.616c0,-1.14 -0.894,-2.078 -2.423,-2.323l0,-0.029c1.731,-0.245 2.841,-0.981 2.841,-2.668c0,-0.794 -0.331,-1.544 -0.808,-1.991c-0.591,-0.548 -1.312,-0.815 -2.898,-0.815c-0.967,0 -2.164,0.044 -2.914,0.044c-0.65,0 -1.183,-0.015 -1.645,-0.044l0,0.513z" id="path72"/>
     </g>
     <g id="g74">
      <path fill="#257e3f" fill-rule="nonzero" d="m22.369499,22.730943c-0.976,0 -1.774,0.66 -1.774,1.689l0,3.047l1.154,0l0,-3.021c0,-0.435 0.237,-0.686 0.62,-0.686c0.382,0 0.633,0.251 0.633,0.686l0,3.021l1.154,0l0,-3.047c0,-1.029 -0.811,-1.689 -1.787,-1.689" id="path76"/>
     </g>
     <g id="g78">
      <path fill="#257e3f" fill-rule="nonzero" d="m28.971401,22.770744l-1.504,2.361l0,-2.361l-1.154,0l0,4.696l1.009,0l1.504,-2.361l0,2.361l1.154,0l0,-4.696l-1.009,0z" id="path80"/>
     </g>
     <path fill="#257e3f" fill-rule="nonzero" d="m32.216,27.467044l1.155,0l0,-4.696l-1.155,0l0,4.696z" id="path82"/>
     <g id="g84">
      <path fill="#257e3f" fill-rule="nonzero" d="m37.538399,22.770744l-0.857,0l-1.55,4.696l1.193,0l0.792,-2.625l0.778,2.625l1.201,0l-1.557,-4.696z" id="path86"/>
     </g>
     <g id="g88">
      <path fill="#257e3f" fill-rule="nonzero" d="m40.823002,22.770744l0,4.696l3.193,0l0,-1.029l-2.039,0l0,-0.785l1.742,0l0,-1.029l-1.742,0l0,-0.824l2.039,0l0,-1.029l-3.193,0z" id="path90"/>
     </g>
     <g id="g92">
      <path fill="#257e3f" fill-rule="nonzero" d="m7.7782,9.330844l-0.141,0.048c-0.092,0.031 -2.288,0.792 -4.446,2.656c-2.614,2.259 -2.896,5.665 -2.896,7.024l0,8.41l0.245,0.12c2.06,1.002 4.359,1.469 7.238,1.469c2.878,0 5.177,-0.467 7.236,-1.469l0.245,-0.12l0,-8.41c0,-1.359 -0.282,-4.764 -2.895,-7.024c-2.158,-1.864 -4.353,-2.625 -4.445,-2.656l-0.141,-0.048z" id="path94"/>
     </g>
     <g id="g96">
      <path fill="#fdf3b4" fill-rule="nonzero" d="m11.117001,23.800644c-0.748,0 -1.275,0.111 -2.021,0.266c-0.135,0.028 -0.267,0.042 -0.392,0.042c-0.29,0 -0.546,-0.068 -0.753,-0.166c-0.061,-0.029 -0.119,-0.06 -0.173,-0.092c-0.054,0.032 -0.113,0.063 -0.172,0.092c-0.209,0.098 -0.463,0.166 -0.754,0.166c-0.124,0 -0.257,-0.014 -0.392,-0.042c-0.746,-0.155 -1.274,-0.266 -2.022,-0.266c-0.106,0 -0.217,0.002 -0.333,0.006l0.235,2.522c0.121,-0.005 0.231,-0.008 0.335,-0.01l0.061,0.788l0.227,-0.011c0.089,-0.004 0.169,-0.006 0.246,-0.006c0.263,0 0.49,0.024 0.741,0.077c0.159,0.034 0.317,0.076 0.5,0.125c0.084,0.023 0.174,0.047 0.27,0.071c0.33,0.081 0.63,0.038 0.904,-0.119c0.052,-0.029 0.104,-0.063 0.153,-0.101c0.049,0.037 0.102,0.072 0.156,0.102c0.272,0.155 0.588,0.197 0.9,0.119c0.101,-0.026 0.193,-0.051 0.28,-0.074c0.18,-0.048 0.335,-0.09 0.492,-0.123c0.334,-0.071 0.622,-0.09 0.986,-0.071l0.227,0.012l0.061,-0.789c0.105,0.002 0.214,0.004 0.336,0.01l0.236,-2.522c-0.117,-0.004 -0.228,-0.006 -0.334,-0.006m-3.339,4.384c-2.626,0 -4.735,-0.403 -6.609,-1.265l0,-5.501c0.77,0.452 1.419,0.985 1.91,1.553c0.582,-0.672 1.382,-1.298 2.348,-1.795c0.968,0.497 1.769,1.123 2.351,1.795c0.581,-0.672 1.383,-1.298 2.35,-1.795c0.965,0.497 1.765,1.123 2.347,1.795c0.491,-0.568 1.14,-1.101 1.911,-1.553l0,5.501c-1.874,0.862 -3.983,1.265 -6.608,1.265" id="path98"/>
     </g>
     <g id="g100">
      <path fill="#ffffff" fill-rule="nonzero" d="m6.6307,24.797045l-0.02,-0.005c-0.615,-0.154 -1.021,-0.256 -1.605,-0.256l0.162,2.087c0.311,0 0.58,0.024 0.879,0.087c0.171,0.036 0.335,0.08 0.524,0.131c0.083,0.022 0.171,0.046 0.263,0.069c0.203,0.051 0.388,0.026 0.56,-0.073c0.064,-0.035 0.113,-0.074 0.15,-0.108l0,-1.97c-0.295,0.1 -0.612,0.114 -0.913,0.038" id="path102"/>
     </g>
     <g id="g104">
      <path fill="#ffffff" fill-rule="nonzero" d="m8.9247,24.797045c-0.309,0.077 -0.616,0.065 -0.914,-0.038l0,1.967c0.045,0.041 0.095,0.08 0.152,0.112c0.17,0.097 0.365,0.121 0.555,0.073c0.098,-0.025 0.189,-0.049 0.274,-0.072c0.187,-0.05 0.348,-0.094 0.516,-0.129c0.285,-0.06 0.542,-0.087 0.839,-0.087l0.041,0l0.161,-2.087c-0.594,0 -1.004,0.104 -1.624,0.261" id="path106"/>
     </g>
     <g id="g108">
      <path fill="#479958" fill-rule="nonzero" d="m7.7789,20.329344c0.858,0.194 1.648,0.486 2.349,0.847c-0.967,0.498 -1.768,1.123 -2.35,1.796c-0.582,-0.673 -1.384,-1.298 -2.352,-1.795c0.702,-0.362 1.493,-0.655 2.353,-0.848" id="path110"/>
     </g>
     <g id="g112">
      <path fill="#288b4c" fill-rule="nonzero" d="m3.084,20.332245c0.737,-0.167 1.525,-0.262 2.353,-0.262c0.824,0 1.607,0.094 2.341,0.259c-0.86,0.194 -1.648,0.487 -2.35,0.848c-0.699,-0.36 -1.487,-0.651 -2.344,-0.845" id="path114"/>
     </g>
     <g id="g116">
      <path fill="#288b4c" fill-rule="nonzero" d="m7.7775,20.329744c0.733,-0.165 1.517,-0.26 2.34,-0.26c0.828,0 1.616,0.095 2.354,0.263c-0.857,0.193 -1.645,0.485 -2.345,0.845c-0.701,-0.361 -1.49,-0.655 -2.349,-0.848" id="path118"/>
     </g>
     <g id="g120">
      <path fill="#3e9555" fill-rule="nonzero" d="m1.1685,20.082643c0.668,0.027 1.309,0.113 1.915,0.249c-0.687,0.156 -1.326,0.378 -1.915,0.645l0,-0.894z" id="path122"/>
     </g>
     <g id="g124">
      <path fill="#75af69" fill-rule="nonzero" d="m1.1685,21.418443l0,-0.442c0.589,-0.267 1.229,-0.488 1.917,-0.645c0.855,0.194 1.642,0.486 2.342,0.845c-0.966,0.498 -1.766,1.123 -2.349,1.796c-0.491,-0.569 -1.139,-1.102 -1.91,-1.554" id="path126"/>
     </g>
     <g id="g128">
      <path fill="#3e9555" fill-rule="nonzero" d="m14.3857,20.976244c-0.588,-0.267 -1.228,-0.488 -1.915,-0.644c0.606,-0.137 1.247,-0.222 1.915,-0.25l0,0.894z" id="path130"/>
     </g>
     <g id="g132">
      <path fill="#75af69" fill-rule="nonzero" d="m14.3857,20.976644l0,0.442c-0.771,0.452 -1.42,0.985 -1.911,1.554c-0.582,-0.673 -1.381,-1.298 -2.347,-1.796c0.699,-0.359 1.487,-0.651 2.341,-0.845c0.688,0.156 1.328,0.378 1.917,0.645" id="path134"/>
     </g>
     <g id="g136">
      <path fill="#f9dc09" fill-rule="nonzero" d="m13.585699,18.883044c-0.349,0.222 -0.679,0.432 -1.111,0.432c-0.432,0 -0.762,-0.21 -1.111,-0.432c-0.362,-0.231 -0.735,-0.469 -1.237,-0.469c-0.502,0 -0.876,0.238 -1.238,0.469c-0.349,0.222 -0.68,0.432 -1.111,0.432c-0.432,0 -0.763,-0.21 -1.112,-0.432c-0.362,-0.231 -0.736,-0.469 -1.238,-0.469c-0.501,0 -0.875,0.238 -1.237,0.469c-0.349,0.222 -0.679,0.432 -1.11,0.432c-0.433,0 -0.763,-0.21 -1.112,-0.432c-0.243,-0.155 -0.493,-0.312 -0.783,-0.399c0.019,-0.331 0.058,-0.719 0.13,-1.143c0.206,0.086 0.396,0.205 0.581,0.323c0.35,0.222 0.712,0.452 1.184,0.452c0.471,0 0.833,-0.23 1.183,-0.452c0.361,-0.229 0.702,-0.446 1.164,-0.446c0.463,0 0.804,0.217 1.165,0.446c0.351,0.222 0.713,0.452 1.185,0.452c0.471,0 0.833,-0.23 1.183,-0.452c0.362,-0.229 0.704,-0.446 1.166,-0.446c0.462,0 0.803,0.217 1.165,0.446c0.35,0.222 0.712,0.452 1.183,0.452c0.471,0 0.833,-0.23 1.183,-0.452c0.185,-0.118 0.375,-0.237 0.581,-0.323c0.072,0.424 0.111,0.812 0.13,1.143c-0.29,0.087 -0.54,0.244 -0.783,0.399" id="path138"/>
     </g>
     <g id="g140">
      <path fill="#fbed80" fill-rule="nonzero" d="m8.4543,10.548744l0,0.523l-0.619,-0.609l-0.523,0.508l0,0.789l0.523,-0.51l0.619,0.613l0,0.862l-0.619,-0.609l-0.523,0.508l0,0.827l0.523,-0.51l0.619,0.612l0,0.934l-0.619,-0.609l-0.523,0.508l0,0.774l0.523,-0.476l0.883,0.86l-0.936,0.795l-1.026,-0.89l0,-4.734c0.47,-0.235 0.834,-0.384 1.022,-0.457c0.138,0.054 0.374,0.151 0.676,0.291" id="path142"/>
     </g>
     <g id="g144">
      <path fill="#fbed80" fill-rule="nonzero" d="m6.1081,12.639944l-0.619,-0.636l-0.523,0.534l0,0.821l0.523,-0.518l0.619,0.621l0,0.975l-0.619,-0.618l-0.523,0.516l0,0.825l0.523,-0.476l0.883,0.86l-0.937,0.795l-1.025,-0.89l0,-3.278c0.598,-0.455 1.182,-0.822 1.698,-1.112l0,1.581z" id="path146"/>
     </g>
     <g id="g148">
      <path fill="#fbed80" fill-rule="nonzero" d="m10.1812,14.683744l0.883,0.86l-0.936,0.795l-1.026,-0.89l0,-4.578c0.499,0.263 1.086,0.609 1.698,1.046l0,0.723l-0.619,-0.636l-0.522,0.534l0,0.821l0.522,-0.518l0.619,0.621l0,0.975l-0.619,-0.618l-0.522,0.516l0,0.825l0.522,-0.476z" id="path150"/>
     </g>
     <g id="g152">
      <path fill="#fbed80" fill-rule="nonzero" d="m12.5275,14.683744l0.883,0.86l-0.936,0.795l-1.026,-0.89l0,-3.04c0.115,0.092 0.23,0.187 0.345,0.287c0.564,0.488 1.006,1.039 1.353,1.611l0,0.13l-0.619,-0.618l-0.522,0.516l0,0.825l0.522,-0.476z" id="path154"/>
     </g>
     <g id="g156">
      <path fill="#fbed80" fill-rule="nonzero" d="m3.1423,14.683744l0.883,0.86l-0.936,0.795l-1.026,-0.89l0,-0.507c0.384,-0.795 0.927,-1.579 1.698,-2.246l0,1.741l-0.619,-0.618l-0.522,0.516l0,0.825l0.522,-0.476z" id="path158"/>
     </g>
    </g>
   </g>
  </g>
 </g>
</svg>