<svg xmlns="http://www.w3.org/2000/svg" xmlns:xlink="http://www.w3.org/1999/xlink" xmlns:sketch="http://www.bohemiancoding.com/sketch/ns" viewBox="0 0 30 37.5" version="1.1" x="0px" y="0px" style='background-color:#8DC5E9;'><title>business_048-presentation-board-chart-report-analytic</title><desc>Created with Sketch.</desc><g stroke="none" stroke-width="1" fill="none" fill-rule="evenodd" sketch:type="MSPage"><g sketch:type="MSArtboardGroup" transform="translate(-360.000000, -225.000000)"><g sketch:type="MSLayerGroup" transform="translate(362.000000, 226.000000)"><path d="M12,2.5 C12,2.77614237 12.2238576,3 12.5,3 L14.5,3 C14.7761424,3 15,2.77614237 15,2.5 L15,1 L12,1 L12,2.5 Z" fill="#ffffff" sketch:type="MSShapeGroup" transform="translate(13.500000, 2.000000) scale(1, -1) translate(-13.500000, -2.000000) "/><path d="M13,2 L14,2 L14,0.5 C14,0.223857625 13.7761424,0 13.5,0 C13.2238576,0 13,0.223857625 13,0.5 L13,2 Z" fill="#ffffff" sketch:type="MSShapeGroup"/><path d="M26.5,3 C26.7761424,3 27,2.77614237 27,2.5 C27,2.22385763 26.7761424,2 26.5,2 L0.5,2 C0.223857625,2 0,2.22385763 0,2.5 C0,2.77614237 0.223857625,3 0.5,3 L26.5,3 Z" fill="#ffffff" sketch:type="MSShapeGroup"/><path d="M22.5,9 C22.7761424,9 23,8.77614237 23,8.5 C23,8.22385763 22.7761424,8 22.5,8 L15.5,8 C15.2238576,8 15,8.22385763 15,8.5 C15,8.77614237 15.2238576,9 15.5,9 L22.5,9 Z" fill="#ffffff" sketch:type="MSShapeGroup"/><rect fill="#ffffff" sketch:type="MSShapeGroup" x="1" y="4" width="25" height="15"/><path d="M3.5,12.5 C3.5,14.709139 5.290861,16.5 7.5,16.5 C9.709139,16.5 11.5,14.709139 11.5,12.5 C11.5,12.2238576 11.2761424,12 11,12 L8,12 L8,9 C8,8.72385763 7.77614237,8.5 7.5,8.5 C5.290861,8.5 3.5,10.290861 3.5,12.5 Z" fill="#ffffff" sketch:type="MSShapeGroup"/><path d="M9,10.5099592 C9,10.7806013 9.22269546,11 9.49004077,11 L13,11 C13.2761424,11 13.5,10.7761424 13.5,10.5 C13.5,8.290861 11.709139,6.5 9.5,6.5 C9.22385763,6.5 9,6.72385763 9,7 L9,10.5099592 Z" fill="#ffffff" sketch:type="MSShapeGroup"/><path d="M22.5,12 C22.7761424,12 23,11.7761424 23,11.5 C23,11.2238576 22.7761424,11 22.5,11 L15.5,11 C15.2238576,11 15,11.2238576 15,11.5 C15,11.7761424 15.2238576,12 15.5,12 L22.5,12 Z" fill="#ffffff" sketch:type="MSShapeGroup"/><path d="M22.5,15 C22.7761424,15 23,14.7761424 23,14.5 C23,14.2238576 22.7761424,14 22.5,14 L15.5,14 C15.2238576,14 15,14.2238576 15,14.5 C15,14.7761424 15.2238576,15 15.5,15 L22.5,15 Z" fill="#ffffff" sketch:type="MSShapeGroup"/><path d="M26.5,21 C26.7761424,21 27,20.7761424 27,20.5 C27,20.2238576 26.7761424,20 26.5,20 L0.5,20 C0.223857625,20 0,20.2238576 0,20.5 C0,20.7761424 0.223857625,21 0.5,21 L26.5,21 Z" fill="#ffffff" sketch:type="MSShapeGroup"/><path d="M7.1,24.2 C6.93431458,24.4209139 6.9790861,24.7343146 7.2,24.9 C7.4209139,25.0656854 7.73431458,25.0209139 7.9,24.8 L10.9,20.8 C11.0656854,20.5790861 11.0209139,20.2656854 10.8,20.1 C10.5790861,19.9343146 10.2656854,19.9790861 10.1,20.2 L7.1,24.2 Z" fill="#ffffff" sketch:type="MSShapeGroup"/><path d="M19.1,24.8 C19.2656854,25.0209139 19.5790861,25.0656854 19.8,24.9 C20.0209139,24.7343146 20.0656854,24.4209139 19.9,24.2 L16.9,20.2 C16.7343146,19.9790861 16.4209139,19.9343146 16.2,20.1 C15.9790861,20.2656854 15.9343146,20.5790861 16.1,20.8 L19.1,24.8 Z" fill="#ffffff" sketch:type="MSShapeGroup"/></g></g></g><text x="0" y="45" fill="#ffffff" font-size="5px" font-weight="bold" font-family="'Helvetica Neue', Helvetica, Arial-Unicode, Arial, Sans-serif">Created by Pham Thi Dieu Linh</text><text x="0" y="50" fill="#ffffff" font-size="5px" font-weight="bold" font-family="'Helvetica Neue', Helvetica, Arial-Unicode, Arial, Sans-serif">from the Noun Project</text></svg>